<mxfile host="app.diagrams.net" agent="Mozilla/5.0 (Macintosh; Intel Mac OS X 10_15_7) AppleWebKit/537.36 (KHTML, like Gecko) Chrome/135.0.0.0 Safari/537.36" version="27.0.9">
  <diagram name="Page-1" id="NTJsS1dSlttZa6gT9aiJ">
    <mxGraphModel dx="1033" dy="592" grid="1" gridSize="10" guides="1" tooltips="1" connect="1" arrows="1" fold="1" page="1" pageScale="1" pageWidth="827" pageHeight="1169" math="0" shadow="0">
      <root>
        <mxCell id="0" />
        <mxCell id="1" parent="0" />
        <mxCell id="QYNOlAwTW8NCvYR3k66H-3" value="" style="edgeStyle=orthogonalEdgeStyle;rounded=0;orthogonalLoop=1;jettySize=auto;html=1;" parent="1" source="QYNOlAwTW8NCvYR3k66H-1" target="QYNOlAwTW8NCvYR3k66H-2" edge="1">
          <mxGeometry relative="1" as="geometry">
            <Array as="points">
              <mxPoint x="400" y="110" />
              <mxPoint x="400" y="110" />
            </Array>
          </mxGeometry>
        </mxCell>
        <mxCell id="QYNOlAwTW8NCvYR3k66H-4" value="&lt;font style=&quot;font-size: 10px;&quot;&gt;F9 (3x)&lt;/font&gt;" style="edgeLabel;html=1;align=center;verticalAlign=middle;resizable=0;points=[];" parent="QYNOlAwTW8NCvYR3k66H-3" vertex="1" connectable="0">
          <mxGeometry x="-0.1" relative="1" as="geometry">
            <mxPoint y="-9" as="offset" />
          </mxGeometry>
        </mxCell>
        <mxCell id="QYNOlAwTW8NCvYR3k66H-1" value="Waiting" style="rounded=0;whiteSpace=wrap;html=1;" parent="1" vertex="1">
          <mxGeometry x="320" y="40" width="120" height="60" as="geometry" />
        </mxCell>
        <mxCell id="QYNOlAwTW8NCvYR3k66H-17" style="edgeStyle=orthogonalEdgeStyle;rounded=0;orthogonalLoop=1;jettySize=auto;html=1;entryX=0.5;entryY=0;entryDx=0;entryDy=0;exitX=0.5;exitY=1;exitDx=0;exitDy=0;" parent="1" source="QYNOlAwTW8NCvYR3k66H-2" target="QYNOlAwTW8NCvYR3k66H-13" edge="1">
          <mxGeometry relative="1" as="geometry" />
        </mxCell>
        <mxCell id="QYNOlAwTW8NCvYR3k66H-22" value="F1..F4=1" style="edgeLabel;html=1;align=center;verticalAlign=middle;resizable=0;points=[];" parent="QYNOlAwTW8NCvYR3k66H-17" vertex="1" connectable="0">
          <mxGeometry x="0.6414" relative="1" as="geometry">
            <mxPoint y="-19" as="offset" />
          </mxGeometry>
        </mxCell>
        <mxCell id="QYNOlAwTW8NCvYR3k66H-37" value="" style="edgeStyle=orthogonalEdgeStyle;rounded=0;orthogonalLoop=1;jettySize=auto;html=1;" parent="1" source="QYNOlAwTW8NCvYR3k66H-2" target="QYNOlAwTW8NCvYR3k66H-1" edge="1">
          <mxGeometry relative="1" as="geometry">
            <Array as="points">
              <mxPoint x="360" y="120" />
              <mxPoint x="360" y="120" />
            </Array>
          </mxGeometry>
        </mxCell>
        <mxCell id="QYNOlAwTW8NCvYR3k66H-38" value="!F9" style="edgeLabel;html=1;align=center;verticalAlign=middle;resizable=0;points=[];" parent="QYNOlAwTW8NCvYR3k66H-37" vertex="1" connectable="0">
          <mxGeometry relative="1" as="geometry">
            <mxPoint as="offset" />
          </mxGeometry>
        </mxCell>
        <mxCell id="QYNOlAwTW8NCvYR3k66H-2" value="Ready" style="rounded=0;whiteSpace=wrap;html=1;" parent="1" vertex="1">
          <mxGeometry x="320" y="150" width="120" height="60" as="geometry" />
        </mxCell>
        <mxCell id="QYNOlAwTW8NCvYR3k66H-24" value="" style="edgeStyle=orthogonalEdgeStyle;rounded=0;orthogonalLoop=1;jettySize=auto;html=1;" parent="1" source="QYNOlAwTW8NCvYR3k66H-13" target="QYNOlAwTW8NCvYR3k66H-23" edge="1">
          <mxGeometry relative="1" as="geometry" />
        </mxCell>
        <mxCell id="QYNOlAwTW8NCvYR3k66H-40" value="" style="edgeStyle=orthogonalEdgeStyle;rounded=0;orthogonalLoop=1;jettySize=auto;html=1;endArrow=block;endFill=0;dashed=1;" parent="1" target="QYNOlAwTW8NCvYR3k66H-39" edge="1">
          <mxGeometry relative="1" as="geometry">
            <mxPoint x="350" y="230" as="sourcePoint" />
          </mxGeometry>
        </mxCell>
        <mxCell id="QYNOlAwTW8NCvYR3k66H-13" value="Verify&lt;div&gt;&lt;font style=&quot;font-size: 10px;&quot;&gt;&lt;i&gt;4 movements&lt;/i&gt;&lt;/font&gt;&lt;/div&gt;" style="rounded=0;whiteSpace=wrap;html=1;" parent="1" vertex="1">
          <mxGeometry x="320" y="257" width="120" height="53" as="geometry" />
        </mxCell>
        <mxCell id="QYNOlAwTW8NCvYR3k66H-27" style="edgeStyle=orthogonalEdgeStyle;rounded=0;orthogonalLoop=1;jettySize=auto;html=1;exitX=0.5;exitY=1;exitDx=0;exitDy=0;" parent="1" source="QYNOlAwTW8NCvYR3k66H-23" edge="1">
          <mxGeometry relative="1" as="geometry">
            <mxPoint x="380" y="367" as="targetPoint" />
          </mxGeometry>
        </mxCell>
        <mxCell id="QYNOlAwTW8NCvYR3k66H-49" style="edgeStyle=orthogonalEdgeStyle;rounded=0;orthogonalLoop=1;jettySize=auto;html=1;entryX=0.5;entryY=0;entryDx=0;entryDy=0;" parent="1" source="QYNOlAwTW8NCvYR3k66H-23" target="QYNOlAwTW8NCvYR3k66H-48" edge="1">
          <mxGeometry relative="1" as="geometry">
            <Array as="points">
              <mxPoint x="380" y="380" />
              <mxPoint x="540" y="380" />
            </Array>
          </mxGeometry>
        </mxCell>
        <mxCell id="QYNOlAwTW8NCvYR3k66H-53" value="F8" style="edgeLabel;html=1;align=center;verticalAlign=middle;resizable=0;points=[];" parent="QYNOlAwTW8NCvYR3k66H-49" vertex="1" connectable="0">
          <mxGeometry x="0.8" relative="1" as="geometry">
            <mxPoint as="offset" />
          </mxGeometry>
        </mxCell>
        <mxCell id="QYNOlAwTW8NCvYR3k66H-50" style="edgeStyle=orthogonalEdgeStyle;rounded=0;orthogonalLoop=1;jettySize=auto;html=1;entryX=0.5;entryY=0;entryDx=0;entryDy=0;" parent="1" target="QYNOlAwTW8NCvYR3k66H-47" edge="1">
          <mxGeometry relative="1" as="geometry">
            <mxPoint x="380" y="380" as="sourcePoint" />
          </mxGeometry>
        </mxCell>
        <mxCell id="QYNOlAwTW8NCvYR3k66H-54" value="F5" style="edgeLabel;html=1;align=center;verticalAlign=middle;resizable=0;points=[];" parent="QYNOlAwTW8NCvYR3k66H-50" vertex="1" connectable="0">
          <mxGeometry x="0.7863" relative="1" as="geometry">
            <mxPoint as="offset" />
          </mxGeometry>
        </mxCell>
        <mxCell id="QYNOlAwTW8NCvYR3k66H-58" value="" style="edgeStyle=orthogonalEdgeStyle;rounded=0;orthogonalLoop=1;jettySize=auto;html=1;startArrow=classic;startFill=1;" parent="1" source="QYNOlAwTW8NCvYR3k66H-23" edge="1">
          <mxGeometry relative="1" as="geometry">
            <mxPoint x="200" y="352" as="targetPoint" />
          </mxGeometry>
        </mxCell>
        <mxCell id="QYNOlAwTW8NCvYR3k66H-60" value="F0" style="edgeLabel;html=1;align=center;verticalAlign=middle;resizable=0;points=[];" parent="QYNOlAwTW8NCvYR3k66H-58" vertex="1" connectable="0">
          <mxGeometry x="-0.1867" y="-2" relative="1" as="geometry">
            <mxPoint x="-11" y="2" as="offset" />
          </mxGeometry>
        </mxCell>
        <mxCell id="QYNOlAwTW8NCvYR3k66H-62" style="edgeStyle=orthogonalEdgeStyle;rounded=0;orthogonalLoop=1;jettySize=auto;html=1;exitX=1;exitY=0.5;exitDx=0;exitDy=0;entryX=1;entryY=0.5;entryDx=0;entryDy=0;" parent="1" source="QYNOlAwTW8NCvYR3k66H-23" target="QYNOlAwTW8NCvYR3k66H-2" edge="1">
          <mxGeometry relative="1" as="geometry">
            <mxPoint x="520" y="180" as="targetPoint" />
            <Array as="points">
              <mxPoint x="520" y="352" />
              <mxPoint x="520" y="180" />
            </Array>
          </mxGeometry>
        </mxCell>
        <mxCell id="QYNOlAwTW8NCvYR3k66H-63" value="!FX" style="edgeLabel;html=1;align=center;verticalAlign=middle;resizable=0;points=[];" parent="QYNOlAwTW8NCvYR3k66H-62" vertex="1" connectable="0">
          <mxGeometry x="-0.9157" y="1" relative="1" as="geometry">
            <mxPoint x="6" y="1" as="offset" />
          </mxGeometry>
        </mxCell>
        <mxCell id="QYNOlAwTW8NCvYR3k66H-23" value="Set" style="rounded=0;whiteSpace=wrap;html=1;" parent="1" vertex="1">
          <mxGeometry x="320" y="337" width="120" height="30" as="geometry" />
        </mxCell>
        <mxCell id="QYNOlAwTW8NCvYR3k66H-52" style="edgeStyle=orthogonalEdgeStyle;rounded=0;orthogonalLoop=1;jettySize=auto;html=1;entryX=0.5;entryY=1;entryDx=0;entryDy=0;startArrow=classic;startFill=1;" parent="1" source="QYNOlAwTW8NCvYR3k66H-33" target="QYNOlAwTW8NCvYR3k66H-23" edge="1">
          <mxGeometry relative="1" as="geometry">
            <Array as="points">
              <mxPoint x="430" y="390" />
              <mxPoint x="380" y="390" />
            </Array>
          </mxGeometry>
        </mxCell>
        <mxCell id="QYNOlAwTW8NCvYR3k66H-55" value="F7" style="edgeLabel;html=1;align=center;verticalAlign=middle;resizable=0;points=[];" parent="QYNOlAwTW8NCvYR3k66H-52" vertex="1" connectable="0">
          <mxGeometry x="0.44" y="-1" relative="1" as="geometry">
            <mxPoint x="45" y="11" as="offset" />
          </mxGeometry>
        </mxCell>
        <mxCell id="QYNOlAwTW8NCvYR3k66H-33" value="Position-2" style="rounded=0;whiteSpace=wrap;html=1;" parent="1" vertex="1">
          <mxGeometry x="390" y="417" width="80" height="30" as="geometry" />
        </mxCell>
        <mxCell id="QYNOlAwTW8NCvYR3k66H-39" value="X=0/1/2/3" style="ellipse;whiteSpace=wrap;html=1;rounded=0;" parent="1" vertex="1">
          <mxGeometry x="180" y="210" width="80" height="42" as="geometry" />
        </mxCell>
        <mxCell id="QYNOlAwTW8NCvYR3k66H-47" value="Middle" style="rounded=0;whiteSpace=wrap;html=1;" parent="1" vertex="1">
          <mxGeometry x="150" y="417" width="120" height="30" as="geometry" />
        </mxCell>
        <mxCell id="QYNOlAwTW8NCvYR3k66H-48" value="Speed" style="rounded=0;whiteSpace=wrap;html=1;" parent="1" vertex="1">
          <mxGeometry x="490" y="417" width="100" height="30" as="geometry" />
        </mxCell>
        <mxCell id="QYNOlAwTW8NCvYR3k66H-59" value="Save" style="shape=cylinder3;whiteSpace=wrap;html=1;boundedLbl=1;backgroundOutline=1;size=15;" parent="1" vertex="1">
          <mxGeometry x="110" y="320" width="90" height="50" as="geometry" />
        </mxCell>
        <mxCell id="oJy8q3mxPDudQdbHXfoq-4" style="edgeStyle=orthogonalEdgeStyle;rounded=0;orthogonalLoop=1;jettySize=auto;html=1;endArrow=none;startFill=1;startArrow=classic;" edge="1" parent="1" source="oJy8q3mxPDudQdbHXfoq-3">
          <mxGeometry relative="1" as="geometry">
            <mxPoint x="380" y="390" as="targetPoint" />
            <Array as="points">
              <mxPoint x="330" y="390" />
            </Array>
          </mxGeometry>
        </mxCell>
        <mxCell id="oJy8q3mxPDudQdbHXfoq-5" value="F6" style="edgeLabel;html=1;align=center;verticalAlign=middle;resizable=0;points=[];" vertex="1" connectable="0" parent="oJy8q3mxPDudQdbHXfoq-4">
          <mxGeometry x="-0.5325" y="1" relative="1" as="geometry">
            <mxPoint as="offset" />
          </mxGeometry>
        </mxCell>
        <mxCell id="oJy8q3mxPDudQdbHXfoq-3" value="Position-1" style="rounded=0;whiteSpace=wrap;html=1;" vertex="1" parent="1">
          <mxGeometry x="290" y="417" width="80" height="30" as="geometry" />
        </mxCell>
      </root>
    </mxGraphModel>
  </diagram>
</mxfile>
